<svg width="16" height="16" viewBox="0 0 16 16" fill="none" xmlns="http://www.w3.org/2000/svg">
    <path d="M4.96112 4.95004C5.03844 5.78894 5.49739 6.53239 6.09961 7.05004C6.76102 7.61856 9.4079 8.47967 10.0693 9.04819C10.6715 9.56585 11.0727 10.3108 11.1397 11.15M4.96112 4.95004C4.95352 4.86758 4.94961 4.78421 4.94961 4.70004C4.94961 2.98795 6.33753 1.60004 8.04961 1.60004C9.76169 1.60004 11.1496 2.98795 11.1496 4.70004V5.90004C11.1496 6.45232 10.7019 6.90004 10.1496 6.90004C9.59732 6.90004 9.14961 6.45232 9.14961 5.90004C9.14961 5.34775 9.59732 4.90004 10.1496 4.90004H11.3996C13.1117 4.90004 14.4996 6.33795 14.4996 8.05004C14.4996 9.76212 13.1117 11.15 11.3996 11.15H11.1397M4.96112 4.95004H4.69961C2.98753 4.95004 1.59961 6.28795 1.59961 8.00004C1.59961 9.71212 2.98753 11.1 4.69961 11.1H5.94961C6.50189 11.1 6.94961 10.6523 6.94961 10.1C6.94961 9.54775 6.50189 9.10004 5.94961 9.10004C5.39732 9.10004 4.94961 9.54775 4.94961 10.1V11.4C4.94961 13.1121 6.33753 14.5 8.04961 14.5C9.76169 14.5 11.1496 13.1121 11.1496 11.4C11.1496 11.3159 11.1463 11.2325 11.1397 11.15"
          stroke="black"/>
    <path d="M4.85039 4.65C4.85039 5.67228 5.28744 6.46708 5.73881 6.9887C5.21786 6.50067 4.70039 5.71794 4.70039 4.65C4.70039 3.58206 5.21786 2.79933 5.73881 2.3113C5.28744 2.83292 4.85039 3.62772 4.85039 4.65Z"
          fill="white" stroke="white" stroke-width="0.1" stroke-linejoin="round"/>
    <path d="M1.50029 8.00004C1.50029 9.02231 1.93734 9.81711 2.38872 10.3387C1.86776 9.85071 1.35029 9.06798 1.35029 8.00004C1.35029 6.93209 1.86776 6.14936 2.38871 5.66134C1.93734 6.18296 1.50029 6.97776 1.50029 8.00004Z"
          fill="white" stroke="white" stroke-width="0.1" stroke-linejoin="round"/>
    <path d="M4.65007 11.4C4.65007 13.04 5.85007 14.0167 6.45007 14.3C5.93341 13.9833 4.90007 12.96 4.90007 11.4C4.90007 11.4 4.85179 9.9 4.95007 9.75C5.04836 9.6 5.34686 9.11241 5.50007 9C5.39472 9.05955 5.16451 9.16652 5.00007 9.3C4.87604 9.40068 4.81098 9.52277 4.74378 9.61537C4.58749 9.83075 4.65007 11.4 4.65007 11.4Z"
          fill="white"/>
    <path d="M11.0996 4.56102C11.0996 3.33896 10.0996 2.61118 9.59961 2.40005C10.0302 2.63602 10.8496 3.39857 10.8496 4.56102V5.79054C10.8496 5.95448 10.8349 6.21629 10.7072 6.30005C10.795 6.25567 10.7542 6.30078 10.8913 6.20131C11.0283 6.10185 11.0473 5.96873 11.0596 5.85575C11.0719 5.74276 11.0996 4.56102 11.0996 4.56102Z"
          fill="white"/>
    <path d="M9.00029 5.90005C9.00029 6.22758 9.09561 6.49635 9.22216 6.69495C9.19327 6.66827 9.16483 6.63976 9.13733 6.60944C8.97678 6.43237 8.85029 6.19571 8.85029 5.90005C8.85029 5.60439 8.97678 5.36773 9.13733 5.19066C9.16483 5.16034 9.19327 5.13183 9.22216 5.10515C9.09561 5.30375 9.00029 5.57252 9.00029 5.90005Z"
          fill="white" stroke="white" stroke-width="0.1" stroke-linejoin="round"/>
    <path d="M6.75039 10.1C6.75039 9.97821 6.73357 9.87253 6.7034 9.78632C6.7073 9.79003 6.71116 9.7938 6.71499 9.79763C6.79203 9.87487 6.85039 9.97567 6.85039 10.1C6.85039 10.2244 6.79203 10.3252 6.71499 10.4024C6.71116 10.4063 6.7073 10.41 6.7034 10.4137C6.73357 10.3275 6.75039 10.2219 6.75039 10.1Z"
          fill="white" stroke="white" stroke-width="0.1" stroke-linejoin="round"/>
    <path d="M10.9413 11.35C10.9413 10.6006 10.6445 10.0016 10.3096 9.58022C10.6974 9.97773 11.0496 10.5696 11.0496 11.35C11.0496 12.1303 10.6974 12.7222 10.3096 13.1197C10.6445 12.6983 10.9413 12.0993 10.9413 11.35Z"
          fill="white" stroke="white" stroke-width="0.1" stroke-linejoin="round"/>
    <path d="M14.2559 8.00005C14.2559 7.28864 13.9951 6.7156 13.6939 6.30523C14.042 6.6934 14.3504 7.26003 14.3504 8.00005C14.3504 8.74006 14.042 9.3067 13.6939 9.69486C13.9951 9.28449 14.2559 8.71146 14.2559 8.00005Z"
          fill="white" stroke="white" stroke-width="0.1" stroke-linejoin="round"/>
</svg>
