<svg width="24" height="24" viewBox="0 0 24 24" fill="none" xmlns="http://www.w3.org/2000/svg">
    <path d="M7.44229 7.42496C7.55827 8.68332 8.2467 9.7985 9.15002 10.575C10.1421 11.4277 14.1125 12.7194 15.1046 13.5722C16.0079 14.3487 16.6097 15.4662 16.7101 16.725M7.44229 7.42496C7.43089 7.30128 7.42502 7.17622 7.42502 7.04996C7.42502 4.48184 9.5069 2.39996 12.075 2.39996C14.6431 2.39996 16.725 4.48184 16.725 7.04996V8.84996C16.725 9.67839 16.0535 10.35 15.225 10.35C14.3966 10.35 13.725 9.67839 13.725 8.84996C13.725 8.02154 14.3966 7.34996 15.225 7.34996H17.1C19.6681 7.34996 21.75 9.50684 21.75 12.075C21.75 14.6431 19.6681 16.725 17.1 16.725H16.7101M7.44229 7.42496H7.05002C4.4819 7.42496 2.40002 9.43184 2.40002 12C2.40002 14.5681 4.4819 16.65 7.05002 16.65H8.92502C9.75345 16.65 10.425 15.9784 10.425 15.15C10.425 14.3215 9.75345 13.65 8.92502 13.65C8.0966 13.65 7.42502 14.3215 7.42502 15.15V17.1C7.42502 19.6681 9.5069 21.75 12.075 21.75C14.6431 21.75 16.725 19.6681 16.725 17.1C16.725 16.9737 16.72 16.8487 16.7101 16.725"
          stroke="white" stroke-width="1.5"/>
    <path d="M7.27498 6.97497C7.27498 8.50839 7.93054 9.70059 8.60761 10.483C7.82618 9.75098 7.04998 8.57689 7.04998 6.97497C7.04998 5.37305 7.82618 4.19896 8.60761 3.46692C7.93054 4.24935 7.27498 5.44155 7.27498 6.97497Z"
          fill="black" stroke="black" stroke-width="0.15" stroke-linejoin="round"/>
    <path d="M2.25001 12C2.25001 13.5334 2.90558 14.7256 3.58265 15.508C2.80122 14.776 2.02501 13.6019 2.02501 12C2.02501 10.398 2.80122 9.22395 3.58264 8.49192C2.90558 9.27435 2.25001 10.4665 2.25001 12Z"
          fill="black" stroke="black" stroke-width="0.15" stroke-linejoin="round"/>
    <path d="M6.97499 17.1C6.97499 19.56 8.77499 21.025 9.67499 21.45C8.89999 20.975 7.34999 19.44 7.34999 17.1C7.34999 17.1 7.27756 14.85 7.42499 14.625C7.57241 14.4 8.02016 13.6686 8.24998 13.5C8.09196 13.5893 7.74665 13.7497 7.49999 13.95C7.31394 14.101 7.21635 14.2841 7.11555 14.423C6.88111 14.7461 6.97499 17.1 6.97499 17.1Z"
          fill="black"/>
    <path d="M16.65 6.84143C16.65 5.00833 15.15 3.91666 14.4 3.59997C15.0459 3.95392 16.275 5.09775 16.275 6.84143V8.68571C16.275 8.93161 16.2529 9.32432 16.0614 9.44997C16.1931 9.3834 16.132 9.45106 16.3375 9.30187C16.5431 9.15267 16.5715 8.95299 16.59 8.78351C16.6084 8.61403 16.65 6.84143 16.65 6.84143Z"
          fill="black"/>
    <path d="M13.5 8.84997C13.5 9.34126 13.643 9.74442 13.8328 10.0423C13.7895 10.0023 13.7468 9.95953 13.7056 9.91405C13.4647 9.64845 13.275 9.29346 13.275 8.84997C13.275 8.40648 13.4647 8.05148 13.7056 7.78588C13.7468 7.7404 13.7895 7.69764 13.8328 7.65761C13.643 7.95551 13.5 8.35867 13.5 8.84997Z"
          fill="black" stroke="black" stroke-width="0.15" stroke-linejoin="round"/>
    <path d="M10.125 15.15C10.125 14.9672 10.0997 14.8087 10.0545 14.6794C10.0603 14.6849 10.0661 14.6906 10.0719 14.6964C10.1874 14.8122 10.275 14.9634 10.275 15.15C10.275 15.3365 10.1874 15.4877 10.0719 15.6036C10.0661 15.6093 10.0603 15.615 10.0545 15.6205C10.0997 15.4912 10.125 15.3327 10.125 15.15Z"
          fill="black" stroke="black" stroke-width="0.15" stroke-linejoin="round"/>
    <path d="M16.4125 17.025C16.4125 15.9009 15.9673 15.0025 15.465 14.3704C16.0467 14.9666 16.575 15.8545 16.575 17.025C16.575 18.1954 16.0467 19.0833 15.465 19.6796C15.9673 19.0474 16.4125 18.1491 16.4125 17.025Z"
          fill="black" stroke="black" stroke-width="0.15" stroke-linejoin="round"/>
    <path d="M21.3833 12C21.3833 10.9328 20.9921 10.0733 20.5403 9.45774C21.0623 10.04 21.525 10.8899 21.525 12C21.525 13.11 21.0623 13.9599 20.5403 14.5422C20.9921 13.9266 21.3833 13.0671 21.3833 12Z"
          fill="black" stroke="black" stroke-width="0.15" stroke-linejoin="round"/>
</svg>
